<svg 
    xmlns="http://www.w3.org/2000/svg" 
    width="892.475" 
    height="411.295" 
    viewBox="0 0 892.475 411.295"
>
  <path 
    id="_404" 
    data-name="404" 
    d="M456.249,11.7c-39.309,0-70.659-14.344-93.178-42.632-26.516-33.466-39.958-88.264-39.958-162.882,0-46.792,4.914-85.075,14.6-113.785,9.822-29.1,24.694-51.917,44.2-67.819,19.681-16.043,44.69-24.178,74.331-24.178,21.819,0,41.281,4.482,57.844,13.322a111.5,111.5,0,0,1,41.248,38.417c10.611,16.374,19.036,36.532,25.041,59.914,5.974,23.263,9,54.932,9,94.129,0,46.432-4.867,84.53-14.466,113.235-9.731,29.1-24.555,51.964-44.06,67.957C511.176,3.519,486.073,11.7,456.249,11.7Zm0-401.3c-27.279,0-50.162,7.378-68.012,21.929-18.025,14.693-31.834,35.979-41.044,63.266-9.342,27.677-14.079,64.884-14.079,110.587C333.113-121.5,345.827-68.8,370.9-37.15,391.422-11.373,420.139,1.7,456.249,1.7c27.452,0,50.421-7.42,68.27-22.054,18.026-14.78,31.793-36.109,40.917-63.4,9.256-27.681,13.949-64.712,13.949-110.064,0-38.358-2.923-69.19-8.689-91.641-5.735-22.332-13.725-41.5-23.747-56.963a101.613,101.613,0,0,0-37.564-35.033C494.286-385.508,476.408-389.594,456.249-389.594ZM841.367,5H783.115V-89.091H612.625v-50.815L794.367-397.985h47v254.663h53.077v54.231H841.367ZM793.115-5h38.252V-99.091h53.077v-34.231H831.367V-387.985H799.556L622.625-136.739v37.647h170.49ZM230.712,5H172.46V-89.091H1.97v-50.815L183.712-397.985h47v254.663h53.077v54.231H230.712ZM182.46-5h38.252V-99.091h53.077v-34.231H220.712V-387.985H188.9L11.97-136.739v37.647H182.46ZM456.249-27.972c-23.774,0-43.952-11.489-59.974-34.147-15.86-22.429-23.569-65.506-23.569-131.693,0-66.171,8.447-110.507,25.822-135.544,14.175-20.113,33.407-30.3,57.185-30.3,24.126,0,44.482,11.441,60.5,34.005,15.863,22.34,23.575,65.464,23.575,131.835,0,66-7.708,109.034-23.563,131.551C500.207-39.509,480.027-27.972,456.249-27.972Zm-.536-321.68c-20.622,0-36.647,8.514-48.99,26.027-15.93,22.953-24.017,66.638-24.017,129.812,0,63.159,7.312,105.524,21.734,125.919,14.237,20.133,31.184,29.921,51.809,29.921s37.567-9.828,51.8-30.047c14.425-20.486,21.74-62.809,21.74-125.793,0-63.333-7.31-105.741-21.728-126.045C493.828-339.906,476.7-349.652,455.713-349.652Zm337.4,216.33h-137.6l137.6-198.158Zm-118.483-10H783.115V-299.547Zm-492.172,10H44.858l137.6-198.158Zm-118.483-10H172.46V-299.547Z" 
    transform="translate(-1.97 399.594)" 
    fill="#00bc77"
  />
</svg>
